<svg id="Layer_1" data-name="Layer 1" xmlns="http://www.w3.org/2000/svg" viewBox="0 0 215.95 67.98"><defs><style>.cls-1{fill:#f7941d;}.cls-2{fill:#be1e2d;}.cls-3{fill:#27aae1;}.cls-4{fill:#808285;}.cls-5{fill:#fff;stroke:#000;stroke-miterlimit:10;stroke-width:0.5px;}</style></defs><title>Logo_Black</title><polygon class="cls-1" points="63.55 30.26 60.99 30.26 60.99 8.31 88.48 8.31 88.48 10.87 63.55 10.87 63.55 30.26"/><polygon class="cls-2" points="130.03 30.26 127.47 30.26 127.47 2.56 96.79 2.56 96.79 10.87 94.23 10.87 94.23 0 130.03 0 130.03 30.26"/><polygon class="cls-3" points="154.96 30.26 152.4 30.26 152.4 10.87 135.78 10.87 135.78 8.31 154.96 8.31 154.96 30.26"/><polygon class="cls-4" points="113.41 30.26 110.85 30.26 110.85 19.18 80.17 19.18 80.17 30.26 77.61 30.26 77.61 16.62 113.41 16.62 113.41 30.26"/><path d="M75.81,146.15v17.27H73.42V146.15H67.27v-2.28H82v2.28Z" transform="translate(-67.02 -106.01)"/><path d="M89.7,150.94a5.73,5.73,0,0,0-1.77.17,4,4,0,0,0-1.48.73,3.76,3.76,0,0,0-1,1.3,4.36,4.36,0,0,0-.38,1.89v8.39H82.66V148.91H85v1.64a4.2,4.2,0,0,1,1-1,4.54,4.54,0,0,1,1.18-.65,5.49,5.49,0,0,1,1.3-.32,4.57,4.57,0,0,1,1.28,0Z" transform="translate(-67.02 -106.01)"/><path d="M101.69,162.69a5.09,5.09,0,0,1-.13-.93,5.09,5.09,0,0,1-2,1.48,7.62,7.62,0,0,1-3,.52,9,9,0,0,1-2.15-.25,5.28,5.28,0,0,1-1.8-.8,4,4,0,0,1-1.71-3.43A3.76,3.76,0,0,1,92.46,156a8.31,8.31,0,0,1,4.37-1.21,16.93,16.93,0,0,0,2.22-.22,6,6,0,0,0,1.45-.4,1.9,1.9,0,0,0,.79-.59,1.24,1.24,0,0,0,.24-.77,1.72,1.72,0,0,0-.84-1.45,5,5,0,0,0-2.7-.57,6.38,6.38,0,0,0-1.2.11,3.67,3.67,0,0,0-1.17.39,2.8,2.8,0,0,0-.93.79,2.48,2.48,0,0,0-.48,1.3H91.73a4.59,4.59,0,0,1,1.8-3.5A7.12,7.12,0,0,1,98,148.55a6.68,6.68,0,0,1,4.4,1.24,4.07,4.07,0,0,1,1.46,3.27v8a6.56,6.56,0,0,0,.13,1.25,5.83,5.83,0,0,0,.29,1.11h-2.36A4.46,4.46,0,0,1,101.69,162.69Zm-.16-7.07a3.79,3.79,0,0,1-1.91.86,21.32,21.32,0,0,1-2.48.29,10.1,10.1,0,0,0-1.93.31,3.67,3.67,0,0,0-1.19.57,1.81,1.81,0,0,0-.59.76,2.57,2.57,0,0,0-.15.87,1.87,1.87,0,0,0,.27,1,2.14,2.14,0,0,0,.73.7,3.41,3.41,0,0,0,1.07.41,6.71,6.71,0,0,0,1.31.12,7.15,7.15,0,0,0,1.8-.21,4.91,4.91,0,0,0,1.55-.64,3.34,3.34,0,0,0,1.09-1.15,3.4,3.4,0,0,0,.43-1.68Z" transform="translate(-67.02 -106.01)"/><path d="M121.45,163.42h-2.31v-2.34a6.43,6.43,0,0,1-2.08,1.92,5.6,5.6,0,0,1-2.93.79,7.09,7.09,0,0,1-2.9-.59,6.86,6.86,0,0,1-2.3-1.64,7.47,7.47,0,0,1-1.52-2.42,7.87,7.87,0,0,1-.55-3,8,8,0,0,1,.55-3,7.32,7.32,0,0,1,3.82-4.06,6.94,6.94,0,0,1,2.9-.6,5.57,5.57,0,0,1,2.86.74,6.93,6.93,0,0,1,2.07,1.82v-8.6h2.39Zm-2.79-9.32a5.54,5.54,0,0,0-1.07-1.73A4.92,4.92,0,0,0,116,151.2a4.27,4.27,0,0,0-1.9-.43,4.35,4.35,0,0,0-1.92.43,4.57,4.57,0,0,0-1.55,1.17,5.82,5.82,0,0,0-1.41,3.84,5.77,5.77,0,0,0,.38,2.08,5.66,5.66,0,0,0,1,1.72,4.68,4.68,0,0,0,1.55,1.16,4.49,4.49,0,0,0,1.92.43,4.41,4.41,0,0,0,1.9-.43,5,5,0,0,0,1.56-1.16,5.68,5.68,0,0,0,1.47-3.8A5.47,5.47,0,0,0,118.66,154.1Z" transform="translate(-67.02 -106.01)"/><path d="M138.78,158.92a6.81,6.81,0,0,1-2.54,3.59,7.86,7.86,0,0,1-7.24.66,7.45,7.45,0,0,1-3.93-4,7.83,7.83,0,0,1,1.57-8.38,7.35,7.35,0,0,1,2.31-1.64,6.79,6.79,0,0,1,2.84-.6,6.89,6.89,0,0,1,2.74.56,7.14,7.14,0,0,1,2.35,1.64,7.68,7.68,0,0,1,1.63,2.59,9.36,9.36,0,0,1,.61,3.46h-12.2a5.4,5.4,0,0,0,.58,2,5.25,5.25,0,0,0,1.15,1.5,4.83,4.83,0,0,0,1.54,1,4.93,4.93,0,0,0,1.74.33,4.73,4.73,0,0,0,2.64-.71,4.62,4.62,0,0,0,1.67-2Zm-2.31-4.26a5.46,5.46,0,0,0-.69-1.6,5.33,5.33,0,0,0-1.09-1.26,4.68,4.68,0,0,0-1.36-.8,4.29,4.29,0,0,0-1.54-.29,4.67,4.67,0,0,0-1.51.27,5,5,0,0,0-1.38.78,5.59,5.59,0,0,0-1.12,1.24,5.07,5.07,0,0,0-.72,1.66Z" transform="translate(-67.02 -106.01)"/><path d="M151.29,143.84a5.87,5.87,0,0,1,2,1.33,5.13,5.13,0,0,1,1.2,1.86,6,6,0,0,1,.4,2.11h-1.05a4.83,4.83,0,0,0-.39-2,4.52,4.52,0,0,0-1.11-1.51,5,5,0,0,0-1.74-.95,7,7,0,0,0-2.28-.34,7.9,7.9,0,0,0-2.3.31,5.45,5.45,0,0,0-1.76.86,3.82,3.82,0,0,0-1.12,1.32,3.65,3.65,0,0,0-.4,1.71,3,3,0,0,0,1.34,2.56,11.93,11.93,0,0,0,4.47,1.58,27.52,27.52,0,0,1,2.93.76,8.34,8.34,0,0,1,2.18,1,4.22,4.22,0,0,1,1.35,1.51,4.58,4.58,0,0,1,.47,2.15,5.16,5.16,0,0,1-.51,2.31,5,5,0,0,1-1.46,1.78,7.16,7.16,0,0,1-2.3,1.13,10.57,10.57,0,0,1-3,.39,8.87,8.87,0,0,1-2.54-.37,7,7,0,0,1-2.28-1.14,5.85,5.85,0,0,1-1.64-2,6.05,6.05,0,0,1-.62-2.8h1.05a4.93,4.93,0,0,0,.52,2.34,5,5,0,0,0,1.36,1.63,5.92,5.92,0,0,0,1.93,1,8.38,8.38,0,0,0,2.22.31,7.54,7.54,0,0,0,4.53-1.22,3.9,3.9,0,0,0,1.66-3.33,3.68,3.68,0,0,0-.31-1.58,3,3,0,0,0-1-1.21,7.07,7.07,0,0,0-1.87-.93,22,22,0,0,0-2.87-.75,24,24,0,0,1-2.5-.62,8.4,8.4,0,0,1-2.12-1,4.66,4.66,0,0,1-1.48-1.45,3.89,3.89,0,0,1-.55-2.14,4.68,4.68,0,0,1,.48-2.14,4.62,4.62,0,0,1,1.34-1.64,6.29,6.29,0,0,1,2.08-1.07,9.26,9.26,0,0,1,2.72-.38A7.68,7.68,0,0,1,151.29,143.84Z" transform="translate(-67.02 -106.01)"/><path d="M171,163.42h-1v-8.76a5.32,5.32,0,0,0-1.26-3.75,4.73,4.73,0,0,0-3.65-1.35,5.54,5.54,0,0,0-2.05.38,4.9,4.9,0,0,0-1.65,1.07,5.22,5.22,0,0,0-1.1,1.62,5,5,0,0,0-.41,2v8.76h-1v-21h1v8.88a5.75,5.75,0,0,1,2.15-2.06,6.15,6.15,0,0,1,3.09-.76,5.69,5.69,0,0,1,4.37,1.64,6.26,6.26,0,0,1,1.55,4.48Z" transform="translate(-67.02 -106.01)"/><path d="M183.76,149.1a7.41,7.41,0,0,1,2.3,1.65,7.88,7.88,0,0,1,1.56,2.45,7.65,7.65,0,0,1,.58,3,7.48,7.48,0,0,1-.58,3,7.65,7.65,0,0,1-1.56,2.4,7.35,7.35,0,0,1-2.3,1.63,7,7,0,0,1-5.62,0,7.42,7.42,0,0,1-2.29-1.63,8,8,0,0,1-1.56-2.4,7.65,7.65,0,0,1-.57-3,7.83,7.83,0,0,1,.57-3,8.26,8.26,0,0,1,1.56-2.45,7.48,7.48,0,0,1,2.29-1.65,6.78,6.78,0,0,1,5.62,0Zm-.38,13.1a6.26,6.26,0,0,0,2-1.4,6.34,6.34,0,0,0,1.33-2.08,6.71,6.71,0,0,0,.48-2.54,7,7,0,0,0-.48-2.58,6.73,6.73,0,0,0-1.33-2.12,6.19,6.19,0,0,0-2-1.43,5.84,5.84,0,0,0-4.82,0,6.19,6.19,0,0,0-2,1.43,7.14,7.14,0,0,0-1.34,2.12,6.77,6.77,0,0,0-.49,2.58,6.53,6.53,0,0,0,.49,2.54,6.7,6.7,0,0,0,1.34,2.08,6.26,6.26,0,0,0,2,1.4,5.6,5.6,0,0,0,2.4.52A5.66,5.66,0,0,0,183.38,162.2Z" transform="translate(-67.02 -106.01)"/><path d="M203.78,163.42h-1.12l-3.89-12.79-3.9,12.79h-1.12l-4.43-14.51h1.1l3.89,12.79,3.89-12.79h1.13l3.89,12.79,3.89-12.79h1.09Z" transform="translate(-67.02 -106.01)"/><path d="M224.94,160a5.47,5.47,0,0,1-1.21,1.82,5.61,5.61,0,0,1-1.92,1.21,7,7,0,0,1-2.53.43h-8.49V143.87h8.43a6.88,6.88,0,0,1,2.34.38,5,5,0,0,1,1.76,1.07,4.75,4.75,0,0,1,1.11,1.66,5.77,5.77,0,0,1,.39,2.16,4.61,4.61,0,0,1-.59,2.21,4.16,4.16,0,0,1-1.85,1.76,4,4,0,0,1,2.29,1.82,5.64,5.64,0,0,1,.7,2.77A6,6,0,0,1,224.94,160Zm-11.75-7.89h6.12a4.2,4.2,0,0,0,1.09-.15,3.06,3.06,0,0,0,1-.51,2.69,2.69,0,0,0,.73-.92,3.06,3.06,0,0,0,.28-1.38,2.73,2.73,0,0,0-.87-2.27,3.68,3.68,0,0,0-2.34-.69h-6Zm8.76,3.06a4.21,4.21,0,0,0-2.64-.78h-6.12v6.76h6.19a3.77,3.77,0,0,0,2.59-.88,3.19,3.19,0,0,0,1-2.5A3,3,0,0,0,222,155.13Z" transform="translate(-67.02 -106.01)"/><path d="M237.71,149.15A7.31,7.31,0,0,1,240,150.8a7.76,7.76,0,0,1,1.53,2.44,8,8,0,0,1,.57,3,7.74,7.74,0,0,1-.57,2.94,7.46,7.46,0,0,1-1.53,2.4,6.93,6.93,0,0,1-2.32,1.62,7.14,7.14,0,0,1-8.06-1.62,7.35,7.35,0,0,1-1.55-2.4,7.55,7.55,0,0,1-.57-2.94,7.78,7.78,0,0,1,.57-3,7.63,7.63,0,0,1,1.55-2.44,7.45,7.45,0,0,1,2.3-1.65,7.21,7.21,0,0,1,5.76,0Zm-1,12a5.07,5.07,0,0,0,2.62-2.85,5.77,5.77,0,0,0,.38-2.08,6,6,0,0,0-.38-2.13,5.49,5.49,0,0,0-1-1.73,5.41,5.41,0,0,0-1.57-1.17,4.24,4.24,0,0,0-1.9-.43,4.31,4.31,0,0,0-1.91.43,5,5,0,0,0-1.54,1.17,5.68,5.68,0,0,0-1,1.73,6,6,0,0,0-.38,2.13,5.77,5.77,0,0,0,.38,2.08,5.47,5.47,0,0,0,1,1.71,4.94,4.94,0,0,0,1.54,1.14,4.44,4.44,0,0,0,1.91.42A4.36,4.36,0,0,0,236.73,161.14Z" transform="translate(-67.02 -106.01)"/><path d="M254.31,149.15a7.27,7.27,0,0,1,2.31,1.65,7.78,7.78,0,0,1,1.54,2.44,8,8,0,0,1,.56,3,7.73,7.73,0,0,1-.56,2.94,7.49,7.49,0,0,1-1.54,2.4,6.89,6.89,0,0,1-2.31,1.62,7.11,7.11,0,0,1-2.89.59,7,7,0,0,1-2.87-.59,7.2,7.2,0,0,1-2.31-1.62,7.51,7.51,0,0,1-1.55-2.4,7.73,7.73,0,0,1-.56-2.94,8,8,0,0,1,.56-3,7.81,7.81,0,0,1,1.55-2.44,7.62,7.62,0,0,1,2.31-1.65,6.86,6.86,0,0,1,2.87-.6A7,7,0,0,1,254.31,149.15Zm-1,12a5.14,5.14,0,0,0,1.56-1.14,5.31,5.31,0,0,0,1.06-1.71,5.77,5.77,0,0,0,.38-2.08,6,6,0,0,0-.38-2.13,5.52,5.52,0,0,0-1.06-1.73,5.24,5.24,0,0,0-1.56-1.17,4.43,4.43,0,0,0-3.81,0,5.2,5.2,0,0,0-1.55,1.17,5.47,5.47,0,0,0-1,1.73,6,6,0,0,0-.38,2.13,5.77,5.77,0,0,0,.38,2.08,5.26,5.26,0,0,0,1,1.71,5.1,5.1,0,0,0,1.55,1.14,4.53,4.53,0,0,0,3.81,0Z" transform="translate(-67.02 -106.01)"/><path d="M267.9,163.42a6.1,6.1,0,0,1-2.32-.14,4.09,4.09,0,0,1-1.8-1,4.65,4.65,0,0,1-1.17-1.75,6.32,6.32,0,0,1-.42-2.43V151.2h-2v-2.29h2v-3.09h2.36v3.09h3.3v2.29h-3.3v6.93a3.92,3.92,0,0,0,.27,1.57,2.39,2.39,0,0,0,.73,1,2.89,2.89,0,0,0,1.07.48,4.93,4.93,0,0,0,1.28.07Z" transform="translate(-67.02 -106.01)"/><path d="M282.73,163.42h-2.37v-8.81a4.25,4.25,0,0,0-.89-2.78,3.25,3.25,0,0,0-2.67-1.08,3.8,3.8,0,0,0-1.51.29,3.86,3.86,0,0,0-1.22.8,3.61,3.61,0,0,0-.78,1.2,3.91,3.91,0,0,0-.29,1.51v8.87h-2.39V142.51H273v7.87a5.3,5.3,0,0,1,1.79-1.34,5.54,5.54,0,0,1,2.36-.49,5.88,5.88,0,0,1,2.36.45,4.89,4.89,0,0,1,1.76,1.26,5.33,5.33,0,0,1,1.09,2,8.12,8.12,0,0,1,.37,2.48Z" transform="translate(-67.02 -106.01)"/><rect class="cls-5" x="0.25" y="64.99" width="87.71" height="0.21"/><rect class="cls-5" x="127.99" y="64.99" width="87.71" height="0.21"/><path d="M162.66,173.86h-1v-1.07h1Z" transform="translate(-67.02 -106.01)"/><path d="M169.27,173.5a2.52,2.52,0,0,1-1.56.49,2.43,2.43,0,0,1-1-.22,2.77,2.77,0,0,1-.86-.6,2.82,2.82,0,0,1-.79-2,3,3,0,0,1,.21-1.1,2.85,2.85,0,0,1,.58-.89,2.64,2.64,0,0,1,.86-.61,2.43,2.43,0,0,1,1-.22,2.55,2.55,0,0,1,.84.13,2.85,2.85,0,0,1,.72.36,2.52,2.52,0,0,1,.56.57,2.67,2.67,0,0,1,.38.73h-1a1.85,1.85,0,0,0-.63-.7,1.52,1.52,0,0,0-.92-.28,1.71,1.71,0,0,0-.71.16,2,2,0,0,0-.57.44,2.23,2.23,0,0,0-.39.63,2.29,2.29,0,0,0-.14.78,2.21,2.21,0,0,0,.14.78,2.23,2.23,0,0,0,.39.63,1.83,1.83,0,0,0,.57.43,1.56,1.56,0,0,0,.71.15,1.63,1.63,0,0,0,.93-.26,1.84,1.84,0,0,0,.62-.71h1A2.63,2.63,0,0,1,169.27,173.5Z" transform="translate(-67.02 -106.01)"/><path d="M176.33,168.58a2.75,2.75,0,0,1,.85.61,2.92,2.92,0,0,1,.57.91,2.87,2.87,0,0,1,.21,1.1,2.77,2.77,0,0,1-.21,1.08,2.83,2.83,0,0,1-.57.89,2.73,2.73,0,0,1-.85.6,2.6,2.6,0,0,1-1.07.22,2.56,2.56,0,0,1-1.07-.22,2.73,2.73,0,0,1-1.42-1.49,2.77,2.77,0,0,1-.21-1.08,2.87,2.87,0,0,1,.21-1.1,2.92,2.92,0,0,1,.57-.91,2.88,2.88,0,0,1,.85-.61,2.56,2.56,0,0,1,1.07-.22A2.6,2.6,0,0,1,176.33,168.58ZM176,173a1.79,1.79,0,0,0,.57-.42,1.86,1.86,0,0,0,.39-.63,2.23,2.23,0,0,0,.14-.77,2.26,2.26,0,0,0-.14-.79,1.81,1.81,0,0,0-.39-.64,2,2,0,0,0-.57-.44,1.75,1.75,0,0,0-.71-.16,1.63,1.63,0,0,0-.7.16,2.07,2.07,0,0,0-.58.44,2.15,2.15,0,0,0-.39.64,2.26,2.26,0,0,0-.13.79,2,2,0,0,0,.52,1.4,1.83,1.83,0,0,0,.58.42,1.49,1.49,0,0,0,.7.15A1.59,1.59,0,0,0,176,173Z" transform="translate(-67.02 -106.01)"/><path d="M188.39,173.86h-.89v-3.34a1.5,1.5,0,0,0-.3-1,1.1,1.1,0,0,0-.91-.36,1.19,1.19,0,0,0-.51.11,1.24,1.24,0,0,0-.4.3,1.16,1.16,0,0,0-.27.44,1.69,1.69,0,0,0-.09.56v3.28h-.88v-3.34a1.5,1.5,0,0,0-.3-1,1.13,1.13,0,0,0-.9-.36,1.23,1.23,0,0,0-.51.11,1.55,1.55,0,0,0-.41.3,1.28,1.28,0,0,0-.26.44,1.46,1.46,0,0,0-.09.56v3.28h-.89V168.5h.85v.58a1.86,1.86,0,0,1,.62-.53,1.67,1.67,0,0,1,.81-.19,2,2,0,0,1,1,.24,1.75,1.75,0,0,1,.67.68,1.87,1.87,0,0,1,.67-.67,1.92,1.92,0,0,1,1-.25,1.86,1.86,0,0,1,1.46.58,2.32,2.32,0,0,1,.53,1.6Z" transform="translate(-67.02 -106.01)"/></svg>