<?xml version="1.0" encoding="UTF-8"?>
<svg id="Layer_2" data-name="Layer 2" xmlns="http://www.w3.org/2000/svg" viewBox="0 0 436.04 436.04">
  <defs>
    <style>
      .cls-1 {
        fill: none;
      }

      .cls-2 {
        fill: #fff;
      }
    </style>
  </defs>
  <g id="Layer_1-2" data-name="Layer 1">
    <g>
      <rect class="cls-1" width="436.04" height="436.04"/>
      <g>
        <g>
          <path class="cls-2" d="M22.04,164.22c21.09,1.39,46.3-2.56,66.91-.11,11.18,1.33,13,14.31,2.33,17.67l-70.87-.07c-9.66-3.25-8.92-15.88,1.63-17.49Z"/>
          <path class="cls-2" d="M95.8,201.94c5.09,5.33,1.82,14.17-5.36,15.19-6.2.88-29.99.96-36.06.02-9.73-1.51-10.02-15.13-.74-17.63,11.6.96,25.6-1.43,36.89-.06,1.68.2,4.15,1.31,5.27,2.48Z"/>
        </g>
        <g>
          <circle class="cls-2" cx="354.81" cy="295.82" r="12.39"/>
          <path class="cls-2" d="M304.26,138.19h58.7c9.12,0,23.97,7.5,30.99,13.31,42.02,34.82,24.11,95.49,27.36,143.24-3.06,8.77-13.68,6.22-21.07,6.62-3.66,36.76-48.68,53.77-76.43,28.82-8.65-7.78-12.87-17.78-15.6-28.85h-125.43s-2.22.72-2.22.72c-8.01,53.19-84.49,52.63-91.14-.7-10.72-1.74-32.52,5.75-33.99-9.94-1.48-15.78,1.02-34.03.2-50.07,1.75-6.39,9.24-9.69,14.57-5.31.74.61,2.98,3.87,2.98,4.4v42.45h17.72c12.27-43.75,75.83-44.07,87.86,0h107.8V111.61H73.17v29.16c0,1.36-2.83,4.77-4.16,5.44-5.54,2.81-12.27-.2-13.39-6.35-1.01-5.54-1.01-32.46-.12-38.17.51-3.31,3.7-7.1,7.14-7.63l235.74.17c1.99.21,5.89,4.33,5.89,5.93v38.02ZM403.94,222.36h-63.87c-1.18,0-6.28-4.16-6.28-5.54v-59.81l-1.11-1.11h-28.43v126.99l6.57-.07c12.47-43.93,75.26-43.7,88.04-.03l5.07.1v-60.54ZM403.2,204.64c-1.33-18.27-14.72-39.8-32.29-46.34-1.82-.68-7.1-2.39-8.68-2.39h-10.71v48.73h51.68ZM163.36,295.86c0-15.72-12.74-28.46-28.46-28.46s-28.46,12.74-28.46,28.46,12.74,28.46,28.46,28.46,28.46-12.74,28.46-28.46ZM383.21,295.86c0-15.72-12.75-28.47-28.47-28.47s-28.47,12.75-28.47,28.47,12.75,28.47,28.47,28.47,28.47-12.75,28.47-28.47Z"/>
          <circle class="cls-2" cx="134.92" cy="295.85" r="12.43"/>
        </g>
      </g>
    </g>
  </g>
</svg>